<svg aria-hidden="true" style="position: absolute; width: 0; height: 0; overflow: hidden;" version="1.1" xmlns="http://www.w3.org/2000/svg" xmlns:xlink="http://www.w3.org/1999/xlink">
<defs>
<symbol id="Arrow-Bar-Left" viewBox="0 0 32 32">
<path d="M5.333 16l-0.943 0.943c-0.241-0.241-0.39-0.575-0.39-0.943s0.149-0.701 0.39-0.943v0l0.943 0.943zM18.667 14.667c0.736 0 1.333 0.597 1.333 1.333s-0.597 1.333-1.333 1.333v0-2.667zM11.609 20.391c0.251 0.243 0.407 0.583 0.407 0.959 0 0.736-0.597 1.333-1.333 1.333-0.376 0-0.716-0.156-0.959-0.407l-0-0 1.885-1.885zM9.724 9.724c0.24-0.232 0.566-0.374 0.926-0.374 0.736 0 1.333 0.597 1.333 1.333 0 0.36-0.143 0.687-0.375 0.927l0-0-1.885-1.885zM25.333 5.333c0-0.736 0.597-1.333 1.333-1.333s1.333 0.597 1.333 1.333v0h-2.667zM28 26.667c0 0.736-0.597 1.333-1.333 1.333s-1.333-0.597-1.333-1.333v0h2.667zM5.333 14.667h13.333v2.667h-13.333v-2.667zM6.276 15.057l5.333 5.333-1.885 1.885-5.333-5.333 1.885-1.885zM4.391 15.057l5.333-5.333 1.885 1.885-5.333 5.333-1.885-1.885zM28 5.333v21.333h-2.667v-21.333h2.667z"></path>
</symbol>
<symbol id="Arrow-Bar-Right" viewBox="0 0 32 32">
<path d="M26.667 16l0.943 0.943c0.241-0.241 0.39-0.575 0.39-0.943s-0.149-0.701-0.39-0.943v0l-0.943 0.943zM13.333 14.667c-0.736 0-1.333 0.597-1.333 1.333s0.597 1.333 1.333 1.333v0-2.667zM20.391 20.391c-0.232 0.24-0.374 0.566-0.374 0.926 0 0.736 0.597 1.333 1.333 1.333 0.36 0 0.687-0.143 0.927-0.375l-0 0-1.885-1.885zM22.276 9.724c-0.243-0.251-0.583-0.407-0.959-0.407-0.736 0-1.333 0.597-1.333 1.333 0 0.376 0.156 0.716 0.407 0.959l0 0 1.885-1.885zM6.667 5.333c0-0.736-0.597-1.333-1.333-1.333s-1.333 0.597-1.333 1.333v0h2.667zM4 26.667c0 0.736 0.597 1.333 1.333 1.333s1.333-0.597 1.333-1.333v0h-2.667zM26.667 14.667h-13.333v2.667h13.333v-2.667zM25.724 15.057l-5.333 5.333 1.885 1.885 5.333-5.333-1.885-1.885zM27.609 15.057l-5.333-5.333-1.885 1.885 5.333 5.333 1.885-1.885zM4 5.333v21.333h2.667v-21.333h-2.667z"></path>
</symbol>
<symbol id="Bell" viewBox="0 0 32 32">
<path d="M13.333 6.667l0.571 1.205c0.455-0.219 0.763-0.676 0.763-1.205 0-0 0-0 0-0v0h-1.333zM16 4v0zM18.667 6.667h-1.333c0 0 0 0 0 0 0 0.529 0.308 0.986 0.755 1.202l0.008 0.003 0.571-1.205zM24 14.667h1.333l-0.001-0.063-1.332 0.063zM24 18.667h-1.333c0 0.053 0.003 0.107 0.009 0.16l1.324-0.16zM26.667 22.667v1.333c0.736-0 1.333-0.597 1.333-1.333 0-0.495-0.269-0.926-0.669-1.157l-0.006-0.003-0.657 1.16zM5.333 22.667l-0.657-1.16c-0.407 0.234-0.676 0.665-0.676 1.16 0 0.736 0.597 1.333 1.333 1.333v0-1.333zM8 18.667l1.324 0.16c0.006-0.047 0.009-0.102 0.009-0.157 0-0.001 0-0.002 0-0.003v0h-1.333zM8 14.667l-1.332-0.063-0.001 0.063h1.333zM13.333 22.667c0-0.736-0.597-1.333-1.333-1.333s-1.333 0.597-1.333 1.333v0h2.667zM16 28v0zM21.333 22.667c0-0.736-0.597-1.333-1.333-1.333s-1.333 0.597-1.333 1.333v0h2.667zM14.667 6.667c0-0.368 0.149-0.701 0.391-0.943v0l-1.885-1.885c-0.724 0.724-1.172 1.724-1.172 2.828v0h2.667zM15.057 5.724c0.241-0.241 0.575-0.391 0.943-0.391h0v-2.667c-1.104 0-2.104 0.448-2.828 1.172v0l1.885 1.885zM16 5.333c0.368 0 0.701 0.149 0.943 0.391v0l1.885-1.885c-0.724-0.724-1.724-1.172-2.828-1.172h-0v2.667zM16.943 5.724c0.241 0.241 0.391 0.575 0.391 0.943v0h2.667c-0-1.104-0.448-2.104-1.172-2.828v0l-1.885 1.885zM18.096 7.872c1.333 0.64 2.428 1.592 3.219 2.766l0.018 0.028 2.219-1.48c-1.079-1.603-2.538-2.872-4.252-3.698l-0.064-0.028-1.139 2.411zM21.333 10.667c0.773 1.145 1.261 2.54 1.334 4.044l0.001 0.018 2.665-0.125c-0.098-2.030-0.749-3.889-1.804-5.454l0.024 0.038-2.22 1.479zM22.667 14.667v4h2.667v-4h-2.667zM22.676 18.827c0.136 1.093 0.517 2.076 1.087 2.921l-0.015-0.024 2.219-1.48c-0.333-0.493-0.561-1.082-0.641-1.718l-0.002-0.020-2.648 0.32zM23.748 21.724c0.585 0.869 1.343 1.576 2.229 2.085l0.032 0.017 1.315-2.32c-0.552-0.316-1.007-0.741-1.348-1.248l-0.009-0.014-2.219 1.48zM26.667 21.333h-21.333v2.667h21.333v-2.667zM5.991 23.827c0.919-0.527 1.677-1.234 2.246-2.079l0.015-0.024-2.219-1.48c-0.351 0.522-0.806 0.946-1.338 1.252l-0.019 0.010 1.315 2.32zM8.252 21.724c0.555-0.822 0.936-1.804 1.069-2.865l0.003-0.033-2.648-0.32c-0.081 0.655-0.31 1.245-0.652 1.752l0.009-0.014 2.219 1.48zM9.333 18.667v-4h-2.667v4h2.667zM9.332 14.729c0.073-1.522 0.562-2.917 1.353-4.091l-0.018 0.028-2.219-1.48c-1.032 1.527-1.683 3.388-1.78 5.394l-0.001 0.025 2.667 0.124zM10.667 10.667c0.809-1.202 1.904-2.155 3.189-2.774l0.048-0.021-1.14-2.411c-1.778 0.853-3.237 2.123-4.292 3.689l-0.024 0.038 2.219 1.479zM10.667 22.667v1.333h2.667v-1.333h-2.667zM10.667 24c0 1.473 0.597 2.806 1.563 3.771l0 0 1.885-1.885c-0.483-0.482-0.781-1.149-0.781-1.885v-0h-2.667zM12.229 27.771c0.965 0.965 2.298 1.562 3.771 1.563h0v-2.667c-0.736-0-1.403-0.299-1.885-0.781v0l-1.885 1.885zM16 29.333c1.473-0 2.806-0.597 3.771-1.563l0-0-1.885-1.885c-0.482 0.483-1.149 0.781-1.885 0.781h-0v2.667zM19.771 27.771c0.965-0.965 1.562-2.298 1.563-3.771v-0h-2.667c-0 0.736-0.299 1.403-0.781 1.885v0l1.885 1.885zM21.333 24v-1.333h-2.667v1.333h2.667z"></path>
</symbol>
<symbol id="Brand-Facebook" viewBox="0 0 32 32">
<path d="M9.333 13.333v-1.333c-0.736 0-1.333 0.597-1.333 1.333v0h1.333zM9.333 18.667h-1.333c0 0.736 0.597 1.333 1.333 1.333v0-1.333zM13.333 18.667h1.333c0-0.736-0.597-1.333-1.333-1.333v0 1.333zM13.333 28h-1.333c0 0.736 0.597 1.333 1.333 1.333v0-1.333zM18.667 28v1.333c0.736 0 1.333-0.597 1.333-1.333v0h-1.333zM18.667 18.667v-1.333c-0.736 0-1.333 0.597-1.333 1.333v0h1.333zM22.667 18.667v1.333c0.622-0 1.144-0.426 1.291-1.001l0.002-0.009-1.293-0.323zM24 13.333l1.293 0.323c0.025-0.097 0.040-0.208 0.040-0.323 0-0.736-0.597-1.333-1.333-1.333h-0v1.333zM18.667 13.333h-1.333c0 0.736 0.597 1.333 1.333 1.333v0-1.333zM20 9.333v0zM24 9.333v1.333c0.736 0 1.333-0.597 1.333-1.333v0h-1.333zM24 4h1.333c0-0.736-0.597-1.333-1.333-1.333v0 1.333zM13.333 10.667v0zM13.333 13.333v1.333c0.736 0 1.333-0.597 1.333-1.333v0h-1.333zM8 13.333v5.333h2.667v-5.333h-2.667zM9.333 20h4v-2.667h-4v2.667zM12 18.667v9.333h2.667v-9.333h-2.667zM13.333 29.333h5.333v-2.667h-5.333v2.667zM20 28v-9.333h-2.667v9.333h2.667zM18.667 20h4v-2.667h-4v2.667zM23.96 18.989l1.333-5.333-2.587-0.647-1.333 5.333 2.587 0.648zM24 12h-5.333v2.667h5.333v-2.667zM20 13.333v-2.667h-2.667v2.667h2.667zM20 10.667l-1.885-1.885c-0.483 0.482-0.781 1.149-0.781 1.885v0h2.667zM20 10.667v-2.667c-0.736 0-1.403 0.299-1.885 0.781v0l1.885 1.885zM20 10.667h4v-2.667h-4v2.667zM25.333 9.333v-5.333h-2.667v5.333h2.667zM24 2.667h-4v2.667h4v-2.667zM20 2.667c-0 0-0.001 0-0.001 0-2.209 0-4.209 0.895-5.656 2.343v0l1.887 1.887c0.965-0.965 2.298-1.562 3.771-1.563h0v-2.667zM14.343 5.009c-1.447 1.448-2.343 3.447-2.343 5.656 0 0 0 0.001 0 0.001v-0h2.667c0-1.473 0.597-2.806 1.563-3.771l0-0-1.887-1.887zM12 10.667v2.667h2.667v-2.667h-2.667zM13.333 12h-4v2.667h4v-2.667z"></path>
</symbol>
<symbol id="Brand-Instagram" viewBox="0 0 32 32">
<path d="M10.667 6.667h10.667v-2.667h-10.667v2.667zM21.333 6.667c2.209 0 4 1.791 4 4v0h2.667c0-3.682-2.985-6.667-6.667-6.667v0 2.667zM25.333 10.667v10.667h2.667v-10.667h-2.667zM25.333 21.333c0 2.209-1.791 4-4 4v0 2.667c3.682 0 6.667-2.985 6.667-6.667v0h-2.667zM21.333 25.333h-10.667v2.667h10.667v-2.667zM10.667 25.333c-2.209 0-4-1.791-4-4v0h-2.667c0 3.682 2.985 6.667 6.667 6.667v0-2.667zM6.667 21.333v-10.667h-2.667v10.667h2.667zM6.667 10.667c0-2.209 1.791-4 4-4v0-2.667c-3.682 0-6.667 2.985-6.667 6.667v0h2.667zM18.667 16c0 1.473-1.194 2.667-2.667 2.667v0 2.667c2.946 0 5.333-2.388 5.333-5.333v0h-2.667zM16 18.667c-1.473 0-2.667-1.194-2.667-2.667v0h-2.667c0 2.946 2.388 5.333 5.333 5.333v0-2.667zM13.333 16c0-1.473 1.194-2.667 2.667-2.667v0-2.667c-2.946 0-5.333 2.388-5.333 5.333v0h2.667zM16 13.333c1.473 0 2.667 1.194 2.667 2.667v0h2.667c0-2.946-2.388-5.333-5.333-5.333v0 2.667z"></path>
</symbol>
<symbol id="Brand-Soundcloud" viewBox="0 0 32 32">
<path d="M22.667 14.667l-1.307 0.261c0.126 0.615 0.663 1.072 1.307 1.072h0v-1.333zM16 22.667h-1.333c0 0.736 0.597 1.333 1.333 1.333v0-1.333zM16 9.333v-1.333c-0.736 0-1.333 0.597-1.333 1.333v0h1.333zM13.333 10.667c0-0.736-0.597-1.333-1.333-1.333s-1.333 0.597-1.333 1.333v0h2.667zM10.667 22.667c0 0.736 0.597 1.333 1.333 1.333s1.333-0.597 1.333-1.333v0h-2.667zM6.667 22.667c0 0.736 0.597 1.333 1.333 1.333s1.333-0.597 1.333-1.333v0h-2.667zM9.333 13.333c0-0.736-0.597-1.333-1.333-1.333s-1.333 0.597-1.333 1.333v0h2.667zM2.667 21.333c0 0.736 0.597 1.333 1.333 1.333s1.333-0.597 1.333-1.333v0h-2.667zM5.333 18.667c0-0.736-0.597-1.333-1.333-1.333s-1.333 0.597-1.333 1.333v0h2.667zM22.667 16h1.333v-2.667h-1.333v2.667zM24 16c0.533 0 1.221 0.261 1.784 0.783 0.549 0.507 0.883 1.169 0.883 1.884h2.667c0-1.587-0.747-2.924-1.737-3.841-0.977-0.905-2.291-1.492-3.596-1.492v2.667zM26.667 18.667c0 1.429-1.357 2.667-2.667 2.667v2.667c2.691 0 5.333-2.344 5.333-5.333h-2.667zM24 21.333h-8v2.667h8v-2.667zM17.333 22.667v-13.333h-2.667v13.333h2.667zM16 10.667c1.777 0 2.941 0.44 3.723 1.101 0.787 0.665 1.343 1.689 1.636 3.16l2.616-0.523c-0.373-1.863-1.149-3.505-2.531-4.673-1.387-1.172-3.221-1.732-5.444-1.732v2.667zM10.667 10.667v12h2.667v-12h-2.667zM9.333 22.667v-9.333h-2.667v9.333h2.667zM5.333 21.333v-2.667h-2.667v2.667h2.667z"></path>
</symbol>
<symbol id="Brand-Spotify" viewBox="0 0 32 32">
<path d="M9.989 14.815c-0.395 0.236-0.656 0.662-0.656 1.149 0 0.736 0.597 1.334 1.333 1.334 0.25 0 0.484-0.069 0.683-0.188l-0.006 0.003-1.355-2.297zM19.867 17.733c0.22 0.166 0.498 0.267 0.8 0.267 0.736 0 1.333-0.597 1.333-1.333 0-0.435-0.208-0.821-0.53-1.064l-0.003-0.002-1.6 2.133zM11.26 18.891c-0.36 0.243-0.594 0.649-0.594 1.109 0 0.736 0.597 1.334 1.334 1.334 0.276 0 0.532-0.084 0.745-0.227l-0.005 0.003-1.48-2.219zM17.557 21.407c0.243 0.36 0.649 0.593 1.109 0.593 0.736 0 1.334-0.597 1.334-1.334 0-0.276-0.084-0.532-0.227-0.745l0.003 0.005-2.219 1.48zM8.737 10.807c-0.441 0.224-0.738 0.674-0.738 1.193 0 0.737 0.597 1.334 1.334 1.334 0.217 0 0.422-0.052 0.604-0.144l-0.008 0.004-1.192-2.387zM21.96 13.797c0.201 0.127 0.445 0.203 0.707 0.203 0.736 0 1.333-0.597 1.333-1.333 0-0.475-0.248-0.891-0.621-1.127l-0.005-0.003-1.413 2.261zM26.667 16c0 5.891-4.776 10.667-10.667 10.667v0 2.667c7.364 0 13.333-5.969 13.333-13.333h-2.667zM16 26.667c-5.891 0-10.667-4.776-10.667-10.667v0h-2.667c0 7.364 5.969 13.333 13.333 13.333v-2.667zM5.333 16c0-5.891 4.776-10.667 10.667-10.667v0-2.667c-7.364 0-13.333 5.969-13.333 13.333h2.667zM16 5.333c5.891 0 10.667 4.776 10.667 10.667v0h2.667c0-7.364-5.969-13.333-13.333-13.333v2.667zM11.344 17.113c2.795-1.648 6.213-1.113 8.523 0.62l1.6-2.133c-3.024-2.267-7.605-3.067-11.477-0.785l1.355 2.297zM12.74 21.109c0.737-0.492 1.775-0.76 2.755-0.696 0.983 0.067 1.696 0.444 2.063 0.993l2.219-1.48c-0.967-1.449-2.587-2.072-4.104-2.173-1.52-0.101-3.149 0.296-4.412 1.137l1.48 2.219zM9.929 13.193c2.413-1.208 7.224-2.4 12.031 0.604l1.413-2.261c-5.86-3.663-11.717-2.188-14.636-0.728l1.192 2.385z"></path>
</symbol>
<symbol id="Brand-Youtube" viewBox="0 0 32 32">
<path d="M13.333 12l0.685-1.143c-0.196-0.119-0.432-0.19-0.685-0.19-0.736 0-1.333 0.596-1.333 1.332v0h1.333zM20 16l0.685 1.143c0.39-0.237 0.646-0.66 0.646-1.143s-0.256-0.905-0.64-1.139l-0.006-0.003-0.685 1.143zM13.333 20h-1.333c0.001 0.736 0.597 1.332 1.333 1.332 0.253 0 0.49-0.070 0.691-0.193l-0.006 0.003-0.685-1.143zM9.333 8h13.333v-2.667h-13.333v2.667zM22.667 8c2.209 0 4 1.791 4 4v0h2.667c0-3.682-2.985-6.667-6.667-6.667v0 2.667zM26.667 12v8h2.667v-8h-2.667zM26.667 20c0 2.209-1.791 4-4 4v0 2.667c3.682 0 6.667-2.985 6.667-6.667v0h-2.667zM22.667 24h-13.333v2.667h13.333v-2.667zM9.333 24c-2.209 0-4-1.791-4-4v0h-2.667c0 3.682 2.985 6.667 6.667 6.667v0-2.667zM5.333 20v-8h-2.667v8h2.667zM5.333 12c0-2.209 1.791-4 4-4v0-2.667c-3.682 0-6.667 2.985-6.667 6.667v0h2.667zM12.648 13.143l6.667 4 1.371-2.285-6.667-4-1.371 2.285zM19.315 14.857l-6.667 4 1.371 2.285 6.667-4-1.371-2.285zM14.667 20v-8h-2.667v8h2.667z"></path>
</symbol>
<symbol id="Calendar-Plus" viewBox="0 0 32 32">
<path d="M22.667 4c0-0.736-0.597-1.333-1.333-1.333s-1.333 0.597-1.333 1.333v0h2.667zM20 9.333c0 0.736 0.597 1.333 1.333 1.333s1.333-0.597 1.333-1.333v0h-2.667zM12 4c0-0.736-0.597-1.333-1.333-1.333s-1.333 0.597-1.333 1.333v0h2.667zM9.333 9.333c0 0.736 0.597 1.333 1.333 1.333s1.333-0.597 1.333-1.333v0h-2.667zM5.333 13.333c-0.736 0-1.333 0.597-1.333 1.333s0.597 1.333 1.333 1.333v0-2.667zM26.667 16c0.736 0 1.333-0.597 1.333-1.333s-0.597-1.333-1.333-1.333v0 2.667zM13.333 20c-0.736 0-1.333 0.597-1.333 1.333s0.597 1.333 1.333 1.333v0-2.667zM18.667 22.667c0.736 0 1.333-0.597 1.333-1.333s-0.597-1.333-1.333-1.333v0 2.667zM17.333 18.667c0-0.736-0.597-1.333-1.333-1.333s-1.333 0.597-1.333 1.333v0h2.667zM14.667 24c0 0.736 0.597 1.333 1.333 1.333s1.333-0.597 1.333-1.333v0h-2.667zM8 8h16v-2.667h-16v2.667zM24 8c0.736 0 1.333 0.597 1.333 1.333v0h2.667c0-2.209-1.791-4-4-4v0 2.667zM25.333 9.333v16h2.667v-16h-2.667zM25.333 25.333c0 0.736-0.597 1.333-1.333 1.333v0 2.667c2.209 0 4-1.791 4-4v0h-2.667zM24 26.667h-16v2.667h16v-2.667zM8 26.667c-0.736 0-1.333-0.597-1.333-1.333v0h-2.667c0 2.209 1.791 4 4 4v0-2.667zM6.667 25.333v-16h-2.667v16h2.667zM6.667 9.333c0-0.736 0.597-1.333 1.333-1.333v0-2.667c-2.209 0-4 1.791-4 4v0h2.667zM20 4v5.333h2.667v-5.333h-2.667zM9.333 4v5.333h2.667v-5.333h-2.667zM5.333 16h21.333v-2.667h-21.333v2.667zM13.333 22.667h5.333v-2.667h-5.333v2.667zM14.667 18.667v5.333h2.667v-5.333h-2.667z"></path>
</symbol>
<symbol id="Calendar" viewBox="0 0 32 32">
<path d="M22.667 4c0-0.736-0.597-1.333-1.333-1.333s-1.333 0.597-1.333 1.333v0h2.667zM20 9.333c0 0.736 0.597 1.333 1.333 1.333s1.333-0.597 1.333-1.333v0h-2.667zM12 4c0-0.736-0.597-1.333-1.333-1.333s-1.333 0.597-1.333 1.333v0h2.667zM9.333 9.333c0 0.736 0.597 1.333 1.333 1.333s1.333-0.597 1.333-1.333v0h-2.667zM5.333 13.333c-0.736 0-1.333 0.597-1.333 1.333s0.597 1.333 1.333 1.333v0-2.667zM26.667 16c0.736 0 1.333-0.597 1.333-1.333s-0.597-1.333-1.333-1.333v0 2.667zM8 8h16v-2.667h-16v2.667zM24 8c0.736 0 1.333 0.597 1.333 1.333v0h2.667c0-2.209-1.791-4-4-4v0 2.667zM25.333 9.333v16h2.667v-16h-2.667zM25.333 25.333c0 0.736-0.597 1.333-1.333 1.333v0 2.667c2.209 0 4-1.791 4-4v0h-2.667zM24 26.667h-16v2.667h16v-2.667zM8 26.667c-0.736 0-1.333-0.597-1.333-1.333v0h-2.667c0 2.209 1.791 4 4 4v0-2.667zM6.667 25.333v-16h-2.667v16h2.667zM6.667 9.333c0-0.736 0.597-1.333 1.333-1.333v0-2.667c-2.209 0-4 1.791-4 4v0h2.667zM20 4v5.333h2.667v-5.333h-2.667zM9.333 4v5.333h2.667v-5.333h-2.667zM5.333 16h21.333v-2.667h-21.333v2.667z"></path>
</symbol>
<symbol id="Calendar-x" viewBox="0 0 32 32">
<path stroke-linejoin="round" stroke-linecap="round" stroke-miterlimit="4" stroke-width="2.6667" d="M21.333 4v5.333M10.667 4v5.333M5.333 14.667h21.333M8 6.667h16c1.473 0 2.667 1.194 2.667 2.667v0 16c0 1.473-1.194 2.667-2.667 2.667v0h-16c-1.473 0-2.667-1.194-2.667-2.667v0-16c0-1.473 1.194-2.667 2.667-2.667v0zM14.115 23.219l3.771-3.771M14.115 19.448l3.771 3.771"></path>
</symbol>
<symbol id="Camera-plus" viewBox="0 0 32 32">
<path d="M6.667 9.333v0zM9.333 9.333v0zM13.333 5.333v0zM16 6.667c0.736 0 1.333-0.597 1.333-1.333s-0.597-1.333-1.333-1.333v0 2.667zM29.333 14.667c0-0.736-0.597-1.333-1.333-1.333s-1.333 0.597-1.333 1.333v0h2.667zM4 24v0zM20 6.667c-0.736 0-1.333 0.597-1.333 1.333s0.597 1.333 1.333 1.333v0-2.667zM28 9.333c0.736 0 1.333-0.597 1.333-1.333s-0.597-1.333-1.333-1.333v0 2.667zM25.333 4c0-0.736-0.597-1.333-1.333-1.333s-1.333 0.597-1.333 1.333v0h2.667zM22.667 12c0 0.736 0.597 1.333 1.333 1.333s1.333-0.597 1.333-1.333v0h-2.667zM18.667 17.333c0 1.473-1.194 2.667-2.667 2.667v0 2.667c2.946 0 5.333-2.388 5.333-5.333v0h-2.667zM16 20c-1.473 0-2.667-1.194-2.667-2.667v0h-2.667c0 2.946 2.388 5.333 5.333 5.333v0-2.667zM13.333 17.333c0-1.473 1.194-2.667 2.667-2.667v0-2.667c-2.946 0-5.333 2.388-5.333 5.333v0h2.667zM16 14.667c1.473 0 2.667 1.194 2.667 2.667v0h2.667c0-2.946-2.388-5.333-5.333-5.333v0 2.667zM6.667 10.667h2.667v-2.667h-2.667v2.667zM9.333 10.667c1.104-0 2.104-0.448 2.828-1.172v0l-1.885-1.885c-0.241 0.241-0.575 0.391-0.943 0.391h-0v2.667zM12.161 9.495c0.724-0.724 1.172-1.724 1.172-2.828v-0h-2.667c-0 0.368-0.149 0.701-0.391 0.943v0l1.885 1.885zM13.333 6.667l-1.885-1.885c-0.483 0.482-0.781 1.149-0.781 1.885v0h2.667zM13.333 6.667v-2.667c-0.736 0-1.403 0.299-1.885 0.781v0l1.885 1.885zM13.333 6.667h2.667v-2.667h-2.667v2.667zM26.667 14.667v9.333h2.667v-9.333h-2.667zM26.667 24c-0 0.368-0.149 0.701-0.391 0.943v0l1.885 1.885c0.724-0.724 1.172-1.724 1.172-2.828v-0h-2.667zM26.276 24.943c-0.241 0.241-0.575 0.391-0.943 0.391h-0v2.667c1.104-0 2.104-0.448 2.828-1.172v0l-1.885-1.885zM25.333 25.333h-18.667v2.667h18.667v-2.667zM6.667 25.333c-0.368-0-0.701-0.149-0.943-0.391v0l-1.885 1.885c0.724 0.724 1.724 1.172 2.828 1.172h0v-2.667zM5.724 24.943c-0.241-0.241-0.391-0.575-0.391-0.943v-0h-2.667c0 1.104 0.448 2.104 1.172 2.828v0l1.885-1.885zM5.333 24v-12h-2.667v12h2.667zM5.333 12c0-0.368 0.149-0.701 0.391-0.943v0l-1.885-1.885c-0.724 0.724-1.172 1.724-1.172 2.828v0h2.667zM5.724 11.057c0.241-0.241 0.575-0.391 0.943-0.391h0v-2.667c-1.104 0-2.104 0.448-2.828 1.172v0l1.885 1.885zM20 9.333h8v-2.667h-8v2.667zM22.667 4v8h2.667v-8h-2.667z"></path>
</symbol>
<symbol id="Caret-Down" viewBox="0 0 32 32">
<path d="M8 12l8 8 8-8h-16z"></path>
</symbol>
<symbol id="Caret-Up" viewBox="0 0 32 32">
<path d="M24 20l-8-8-8 8h16z"></path>
</symbol>
<symbol id="Check" viewBox="0 0 32 32">
<path d="M7.609 15.057c-0.24-0.232-0.566-0.374-0.926-0.374-0.736 0-1.333 0.597-1.333 1.333 0 0.36 0.143 0.687 0.375 0.927l-0-0 1.885-1.885zM13.333 22.667l-0.943 0.943c0.241 0.241 0.575 0.39 0.943 0.39s0.701-0.149 0.943-0.39v0l-0.943-0.943zM27.609 10.276c0.232-0.24 0.374-0.566 0.374-0.926 0-0.736-0.597-1.333-1.333-1.333-0.36 0-0.687 0.143-0.927 0.375l0-0 1.885 1.885zM5.724 16.943l6.667 6.667 1.885-1.885-6.667-6.667-1.885 1.885zM14.276 23.609l13.333-13.333-1.885-1.885-13.333 13.333 1.885 1.885z"></path>
</symbol>
<symbol id="Chevron-Down" viewBox="0 0 32 32">
<path d="M8.943 11.057c-0.24-0.232-0.566-0.374-0.926-0.374-0.736 0-1.333 0.597-1.333 1.333 0 0.36 0.143 0.687 0.375 0.927l-0-0 1.885-1.885zM16 20l-0.943 0.943c0.241 0.241 0.575 0.39 0.943 0.39s0.701-0.149 0.943-0.39v0l-0.943-0.943zM24.943 12.943c0.232-0.24 0.374-0.566 0.374-0.926 0-0.736-0.597-1.333-1.333-1.333-0.36 0-0.687 0.143-0.927 0.375l0-0 1.885 1.885zM7.057 12.943l8 8 1.885-1.885-8-8-1.885 1.885zM16.943 20.943l8-8-1.885-1.885-8 8 1.885 1.885z"></path>
</symbol>
<symbol id="Chevron-Left" viewBox="0 0 32 32">
<path d="M20.943 8.943c0.232-0.24 0.374-0.566 0.374-0.926 0-0.736-0.597-1.333-1.333-1.333-0.36 0-0.687 0.143-0.927 0.375l0-0 1.885 1.885zM12 16l-0.943-0.943c-0.241 0.241-0.39 0.575-0.39 0.943s0.149 0.701 0.39 0.943v0l0.943-0.943zM19.057 24.943c0.24 0.232 0.566 0.374 0.926 0.374 0.736 0 1.333-0.597 1.333-1.333 0-0.36-0.143-0.687-0.375-0.927l0 0-1.885 1.885zM19.057 7.057l-8 8 1.885 1.885 8-8-1.885-1.885zM11.057 16.943l8 8 1.885-1.885-8-8-1.885 1.885z"></path>
</symbol>
<symbol id="Chevron-Right" viewBox="0 0 32 32">
<path d="M12.943 7.057c-0.24-0.232-0.566-0.374-0.926-0.374-0.736 0-1.333 0.597-1.333 1.333 0 0.36 0.143 0.687 0.375 0.927l-0-0 1.885-1.885zM20 16l0.943 0.943c0.241-0.241 0.39-0.575 0.39-0.943s-0.149-0.701-0.39-0.943v0l-0.943 0.943zM11.057 23.057c-0.251 0.243-0.407 0.583-0.407 0.959 0 0.736 0.597 1.333 1.333 1.333 0.376 0 0.716-0.156 0.959-0.407l0-0-1.885-1.885zM11.057 8.943l8 8 1.885-1.885-8-8-1.885 1.885zM19.057 15.057l-8 8 1.885 1.885 8-8-1.885-1.885z"></path>
</symbol>
<symbol id="Chevron-Up" viewBox="0 0 32 32">
<path d="M8.943 20.943c-0.24 0.232-0.566 0.374-0.926 0.374-0.736 0-1.333-0.597-1.333-1.333 0-0.36 0.143-0.687 0.375-0.927l-0 0 1.885 1.885zM16 12l-0.943-0.943c0.241-0.241 0.575-0.39 0.943-0.39s0.701 0.149 0.943 0.39v0l-0.943 0.943zM24.943 19.057c0.232 0.24 0.374 0.566 0.374 0.926 0 0.736-0.597 1.333-1.333 1.333-0.36 0-0.687-0.143-0.927-0.375l0 0 1.885-1.885zM7.057 19.057l8-8 1.885 1.885-8 8-1.885-1.885zM16.943 11.057l8 8-1.885 1.885-8-8 1.885-1.885z"></path>
</symbol>
<symbol id="Clock" viewBox="0 0 32 32">
<path d="M17.333 9.333c0-0.736-0.597-1.333-1.333-1.333s-1.333 0.597-1.333 1.333v0h2.667zM16 16h-1.333c0 0.368 0.149 0.701 0.391 0.943v0l0.943-0.943zM19.057 20.943c0.24 0.232 0.566 0.374 0.926 0.374 0.736 0 1.333-0.597 1.333-1.333 0-0.36-0.143-0.687-0.375-0.927l0 0-1.885 1.885zM26.667 16c0 5.891-4.776 10.667-10.667 10.667v0 2.667c7.364 0 13.333-5.969 13.333-13.333h-2.667zM16 26.667c-5.891 0-10.667-4.776-10.667-10.667v0h-2.667c0 7.364 5.969 13.333 13.333 13.333v-2.667zM5.333 16c0-5.891 4.776-10.667 10.667-10.667v0-2.667c-7.364 0-13.333 5.969-13.333 13.333h2.667zM16 5.333c5.891 0 10.667 4.776 10.667 10.667v0h2.667c0-7.364-5.969-13.333-13.333-13.333v2.667zM14.667 9.333v6.667h2.667v-6.667h-2.667zM15.057 16.943l4 4 1.885-1.885-4-4-1.885 1.885z"></path>
</symbol>
<symbol id="Close" viewBox="0 0 32 32">
<path d="M24.943 8.943c0.232-0.24 0.374-0.566 0.374-0.926 0-0.736-0.597-1.333-1.333-1.333-0.36 0-0.687 0.143-0.927 0.375l0-0 1.885 1.885zM7.057 23.057c-0.251 0.243-0.407 0.583-0.407 0.959 0 0.736 0.597 1.333 1.333 1.333 0.376 0 0.716-0.156 0.959-0.407l0-0-1.885-1.885zM8.943 7.057c-0.24-0.232-0.566-0.374-0.926-0.374-0.736 0-1.333 0.597-1.333 1.333 0 0.36 0.143 0.687 0.375 0.927l-0-0 1.885-1.885zM23.057 24.943c0.24 0.232 0.566 0.374 0.926 0.374 0.736 0 1.333-0.597 1.333-1.333 0-0.36-0.143-0.687-0.375-0.927l0 0-1.885 1.885zM23.057 7.057l-16 16 1.885 1.885 16-16-1.885-1.885zM7.057 8.943l16 16 1.885-1.885-16-16-1.885 1.885z"></path>
</symbol>
<symbol id="Currency-dollar" viewBox="0 0 32 32">
<path d="M21.009 11.109c0.18 0.538 0.679 0.92 1.267 0.92 0.736 0 1.333-0.597 1.333-1.333 0-0.169-0.032-0.332-0.089-0.481l0.003 0.009-2.515 0.885zM18.667 8l0.057-1.333h-0.057v1.333zM13.333 16v0zM18.667 24v0zM13.333 24l-0.057 1.333h0.057v-1.333zM10.991 20.891c-0.18-0.538-0.679-0.92-1.268-0.92-0.736 0-1.333 0.597-1.333 1.333 0 0.169 0.032 0.332 0.089 0.481l-0.003-0.009 2.515-0.885zM17.333 4c0-0.736-0.597-1.333-1.333-1.333s-1.333 0.597-1.333 1.333v0h2.667zM14.667 8c0 0.736 0.597 1.333 1.333 1.333s1.333-0.597 1.333-1.333v0h-2.667zM17.333 24c0-0.736-0.597-1.333-1.333-1.333s-1.333 0.597-1.333 1.333v0h2.667zM14.667 28c0 0.736 0.597 1.333 1.333 1.333s1.333-0.597 1.333-1.333v0h-2.667zM23.524 10.224c-0.369-1.029-1.013-1.884-1.842-2.503l-0.014-0.010-1.587 2.143c0.422 0.315 0.743 0.742 0.922 1.237l0.006 0.019 2.515-0.885zM21.668 7.711c-0.815-0.609-1.83-0.993-2.933-1.042l-0.011-0-0.115 2.664c0.557 0.025 1.064 0.217 1.479 0.526l-0.007-0.005 1.587-2.143zM18.667 6.667h-5.333v2.667h5.333v-2.667zM13.333 6.667c-1.473 0-2.806 0.597-3.771 1.563l-0 0 1.885 1.885c0.482-0.483 1.149-0.781 1.885-0.781h0v-2.667zM9.563 8.229c-0.965 0.965-1.562 2.298-1.563 3.771v0h2.667c0-0.736 0.299-1.403 0.781-1.885v0l-1.885-1.885zM8 12c0 1.473 0.597 2.806 1.563 3.771l0 0 1.885-1.885c-0.483-0.482-0.781-1.149-0.781-1.885v-0h-2.667zM9.563 15.771c0.965 0.965 2.298 1.562 3.771 1.563h0v-2.667c-0.736-0-1.403-0.299-1.885-0.781v0l-1.885 1.885zM13.333 17.333h5.333v-2.667h-5.333v2.667zM18.667 17.333c0.736 0 1.403 0.299 1.885 0.781v0l1.885-1.885c-0.965-0.965-2.298-1.562-3.771-1.563h-0v2.667zM20.552 18.115c0.483 0.482 0.781 1.149 0.781 1.885v0h2.667c-0-1.473-0.597-2.806-1.563-3.771l-0-0-1.885 1.885zM21.333 20c-0 0.736-0.299 1.403-0.781 1.885v0l1.885 1.885c0.965-0.965 1.562-2.298 1.563-3.771v-0h-2.667zM20.552 21.885c-0.482 0.483-1.149 0.781-1.885 0.781h-0v2.667c1.473-0 2.806-0.597 3.771-1.563l0-0-1.885-1.885zM18.667 22.667h-5.333v2.667h5.333v-2.667zM13.391 22.667c-0.557-0.024-1.064-0.216-1.479-0.525l0.007 0.005-1.587 2.143c0.815 0.609 1.83 0.993 2.933 1.042l0.011 0 0.115-2.664zM11.919 22.147c-0.422-0.315-0.743-0.742-0.922-1.237l-0.006-0.019-2.515 0.885c0.369 1.029 1.012 1.884 1.841 2.503l0.014 0.010 1.589-2.143zM14.667 4v4h2.667v-4h-2.667zM14.667 24v4h2.667v-4h-2.667z"></path>
</symbol>
<symbol id="Current-Location" viewBox="0 0 32 32">
<path d="M17.333 2.667c0-0.736-0.597-1.333-1.333-1.333s-1.333 0.597-1.333 1.333v0h2.667zM14.667 29.333c0 0.736 0.597 1.333 1.333 1.333s1.333-0.597 1.333-1.333v0h-2.667zM29.333 17.333c0.736 0 1.333-0.597 1.333-1.333s-0.597-1.333-1.333-1.333v0 2.667zM2.667 14.667c-0.736 0-1.333 0.597-1.333 1.333s0.597 1.333 1.333 1.333v0-2.667zM18.667 16c0 1.473-1.194 2.667-2.667 2.667v0 2.667c2.946 0 5.333-2.388 5.333-5.333v0h-2.667zM16 18.667c-1.473 0-2.667-1.194-2.667-2.667v0h-2.667c0 2.946 2.388 5.333 5.333 5.333v0-2.667zM13.333 16c0-1.473 1.194-2.667 2.667-2.667v0-2.667c-2.946 0-5.333 2.388-5.333 5.333v0h2.667zM16 13.333c1.473 0 2.667 1.194 2.667 2.667v0h2.667c0-2.946-2.388-5.333-5.333-5.333v0 2.667zM25.333 16c0 5.155-4.179 9.333-9.333 9.333v0 2.667c6.627 0 12-5.373 12-12v0h-2.667zM16 25.333c-5.155 0-9.333-4.179-9.333-9.333v0h-2.667c0 6.627 5.373 12 12 12v0-2.667zM6.667 16c0-5.155 4.179-9.333 9.333-9.333v0-2.667c-6.627 0-12 5.373-12 12v0h2.667zM16 6.667c5.155 0 9.333 4.179 9.333 9.333v0h2.667c0-6.627-5.373-12-12-12v0 2.667zM14.667 2.667v2.667h2.667v-2.667h-2.667zM14.667 26.667v2.667h2.667v-2.667h-2.667zM26.667 17.333h2.667v-2.667h-2.667v2.667zM2.667 17.333h2.667v-2.667h-2.667v2.667z"></path>
</symbol>
<symbol id="Dots" viewBox="0 0 32 32">
<path d="M6.667 16v2.667c1.473 0 2.667-1.194 2.667-2.667v0h-2.667zM6.667 16h-2.667c0 1.473 1.194 2.667 2.667 2.667v0-2.667zM6.667 16v-2.667c-1.473 0-2.667 1.194-2.667 2.667v0h2.667zM6.667 16h2.667c0-1.473-1.194-2.667-2.667-2.667v0 2.667zM16 16v2.667c1.473 0 2.667-1.194 2.667-2.667v0h-2.667zM16 16h-2.667c0 1.473 1.194 2.667 2.667 2.667v0-2.667zM16 16v-2.667c-1.473 0-2.667 1.194-2.667 2.667v0h2.667zM16 16h2.667c0-1.473-1.194-2.667-2.667-2.667v0 2.667zM25.333 16v2.667c1.473 0 2.667-1.194 2.667-2.667v0h-2.667zM25.333 16h-2.667c0 1.473 1.194 2.667 2.667 2.667v0-2.667zM25.333 16v-2.667c-1.473 0-2.667 1.194-2.667 2.667v0h2.667zM25.333 16h2.667c0-1.473-1.194-2.667-2.667-2.667v0 2.667z"></path>
</symbol>
<symbol id="Edit" viewBox="0 0 32 32">
<path d="M12 10.667c0.736 0 1.333-0.597 1.333-1.333s-0.597-1.333-1.333-1.333v0 2.667zM8 9.333v0zM5.333 12v0zM5.333 24v0zM24 20c0-0.736-0.597-1.333-1.333-1.333s-1.333 0.597-1.333 1.333v0h2.667zM12 20h-1.333c0 0.736 0.597 1.333 1.333 1.333v0-1.333zM16 20v1.333c0.368-0 0.701-0.149 0.943-0.391v0l-0.943-0.943zM27.333 8.667v0zM28.161 6.667v0zM25.333 3.839v0zM23.333 4.667v0zM12 16l-0.943-0.943c-0.241 0.241-0.391 0.575-0.391 0.943v0h1.333zM22.276 5.724c-0.243-0.251-0.583-0.407-0.959-0.407-0.736 0-1.333 0.597-1.333 1.333 0 0.376 0.156 0.716 0.407 0.959l0 0 1.885-1.885zM24.391 11.609c0.243 0.251 0.583 0.407 0.959 0.407 0.736 0 1.333-0.597 1.333-1.333 0-0.376-0.156-0.716-0.407-0.959l-0-0-1.885 1.885zM12 8h-4v2.667h4v-2.667zM8 8c-1.104 0-2.104 0.448-2.828 1.172v0l1.885 1.885c0.241-0.241 0.575-0.391 0.943-0.391h0v-2.667zM5.172 9.172c-0.724 0.724-1.172 1.724-1.172 2.828v0h2.667c0-0.368 0.149-0.701 0.391-0.943v0l-1.885-1.885zM4 12v12h2.667v-12h-2.667zM4 24c0 1.104 0.448 2.104 1.172 2.828v0l1.885-1.885c-0.241-0.241-0.391-0.575-0.391-0.943v-0h-2.667zM5.172 26.828c0.724 0.724 1.724 1.172 2.828 1.172h0v-2.667c-0.368-0-0.701-0.149-0.943-0.391v0l-1.885 1.885zM8 28h12v-2.667h-12v2.667zM20 28c1.104-0 2.104-0.448 2.828-1.172v0l-1.885-1.885c-0.241 0.241-0.575 0.391-0.943 0.391h-0v2.667zM22.828 26.828c0.724-0.724 1.172-1.724 1.172-2.828v-0h-2.667c-0 0.368-0.149 0.701-0.391 0.943v0l1.885 1.885zM24 24v-4h-2.667v4h2.667zM12 21.333h4v-2.667h-4v2.667zM16.943 20.943l11.333-11.333-1.885-1.885-11.333 11.333 1.885 1.885zM28.276 9.609c0.78-0.78 1.219-1.84 1.219-2.943h-2.667c0 0.396-0.157 0.777-0.437 1.057l1.885 1.885zM29.495 6.667c0-1.104-0.437-2.163-1.219-2.943l-1.885 1.885c0.28 0.28 0.437 0.661 0.437 1.057h2.667zM28.276 3.724c-0.753-0.753-1.793-1.219-2.942-1.219-0 0-0 0-0 0h0v2.667c0.396 0 0.777 0.157 1.057 0.437l1.885-1.885zM25.333 2.505c-1.104 0-2.163 0.439-2.943 1.219l1.885 1.885c0.28-0.28 0.661-0.437 1.057-0.437v-2.667zM22.391 3.724l-11.333 11.333 1.885 1.885 11.333-11.333-1.885-1.885zM10.667 16v4h2.667v-4h-2.667zM20.391 7.609l4 4 1.885-1.885-4-4-1.885 1.885z"></path>
</symbol>
<symbol id="Favorites-Default" viewBox="0 0 32 32">
<path d="M16 23.667l0.621-1.18c-0.18-0.097-0.394-0.153-0.621-0.153s-0.441 0.057-0.628 0.157l0.007-0.003 0.62 1.18zM7.771 27.993l-1.315-0.227c-0.012 0.068-0.019 0.147-0.019 0.227 0 0.736 0.597 1.333 1.333 1.333 0.227 0 0.441-0.057 0.628-0.157l-0.007 0.003-0.62-1.18zM9.343 18.829l1.315 0.225c0.012-0.068 0.019-0.146 0.019-0.226 0-0.375-0.154-0.713-0.403-0.955l-0-0-0.931 0.956zM2.676 12.34l-0.191-1.32c-0.65 0.096-1.144 0.65-1.144 1.32 0 0.375 0.155 0.714 0.404 0.956l0 0 0.931-0.956zM11.876 11.007l0.191 1.32c0.444-0.066 0.811-0.342 1.002-0.722l0.004-0.008-1.196-0.591zM15.991 2.669l1.196-0.591c-0.223-0.444-0.674-0.744-1.196-0.744s-0.973 0.3-1.193 0.736l-0.004 0.008 1.196 0.591zM20.105 11.007l-1.196 0.591c0.195 0.388 0.562 0.664 0.998 0.728l0.007 0.001 0.191-1.32zM29.305 12.34l0.931 0.956c0.249-0.243 0.404-0.581 0.404-0.956 0-0.67-0.494-1.224-1.137-1.319l-0.007-0.001-0.191 1.32zM22.639 18.829l-0.929-0.956c-0.25 0.243-0.404 0.581-0.404 0.956 0 0.079 0.007 0.157 0.020 0.233l-0.001-0.008 1.315-0.225zM24.211 27.993l-0.621 1.18c0.18 0.097 0.394 0.154 0.622 0.154 0.736 0 1.333-0.597 1.333-1.333 0-0.080-0.007-0.158-0.020-0.234l0.001 0.008-1.315 0.225zM15.38 22.487l-8.229 4.327 1.24 2.36 8.229-4.327-1.24-2.36zM9.085 28.219l1.572-9.164-2.629-0.451-1.572 9.164 2.629 0.451zM10.272 17.873l-6.667-6.489-1.859 1.912 6.667 6.489 1.861-1.912zM2.867 13.66l9.2-1.333-0.381-2.64-9.2 1.333 0.381 2.64zM13.072 11.597l4.115-8.337-2.392-1.181-4.115 8.337 2.392 1.181zM14.795 3.26l4.115 8.337 2.392-1.181-4.115-8.336-2.392 1.181zM19.915 12.327l9.2 1.333 0.381-2.64-9.2-1.333-0.381 2.64zM28.376 11.384l-6.667 6.489 1.86 1.912 6.667-6.489-1.86-1.912zM21.324 19.055l1.573 9.164 2.627-0.451-1.571-9.164-2.629 0.451zM24.832 26.815l-8.211-4.328-1.243 2.36 8.211 4.327 1.243-2.36z"></path>
</symbol>
<symbol id="Favorites-Hover" viewBox="0 0 32 32">
<path fill="#fff" style="fill: var(--color1, #fff)" d="M16 23.667l-8.229 4.327 1.572-9.164-6.667-6.489 9.2-1.333 4.115-8.337 4.115 8.337 9.2 1.333-6.667 6.489 1.572 9.164-8.211-4.327z"></path>
<path fill="#ff715b" style="fill: var(--color2, #ff715b)" d="M16 23.667l0.621-1.18c-0.18-0.097-0.394-0.153-0.621-0.153s-0.441 0.057-0.628 0.157l0.007-0.003 0.62 1.18zM7.771 27.993l-1.315-0.227c-0.012 0.068-0.019 0.147-0.019 0.227 0 0.736 0.597 1.333 1.333 1.333 0.227 0 0.441-0.057 0.628-0.157l-0.007 0.003-0.62-1.18zM9.343 18.829l1.315 0.225c0.012-0.068 0.019-0.146 0.019-0.226 0-0.375-0.154-0.713-0.403-0.955l-0-0-0.931 0.956zM2.676 12.34l-0.191-1.32c-0.65 0.096-1.144 0.65-1.144 1.32 0 0.375 0.155 0.714 0.404 0.956l0 0 0.931-0.956zM11.876 11.007l0.191 1.32c0.444-0.066 0.811-0.342 1.002-0.722l0.004-0.008-1.196-0.591zM15.991 2.669l1.196-0.591c-0.223-0.444-0.674-0.744-1.196-0.744s-0.973 0.3-1.193 0.736l-0.004 0.008 1.196 0.591zM20.105 11.007l-1.196 0.591c0.195 0.388 0.562 0.664 0.998 0.728l0.007 0.001 0.191-1.32zM29.305 12.34l0.931 0.956c0.249-0.243 0.404-0.581 0.404-0.956 0-0.67-0.494-1.224-1.137-1.319l-0.007-0.001-0.191 1.32zM22.639 18.829l-0.929-0.956c-0.25 0.243-0.404 0.581-0.404 0.956 0 0.079 0.007 0.157 0.020 0.233l-0.001-0.008 1.315-0.225zM24.211 27.993l-0.621 1.18c0.18 0.097 0.394 0.154 0.622 0.154 0.736 0 1.333-0.597 1.333-1.333 0-0.080-0.007-0.158-0.020-0.234l0.001 0.008-1.315 0.225zM15.38 22.487l-8.229 4.327 1.24 2.36 8.229-4.327-1.24-2.36zM9.085 28.219l1.572-9.164-2.629-0.451-1.572 9.164 2.629 0.451zM10.272 17.873l-6.667-6.489-1.859 1.912 6.667 6.489 1.861-1.912zM2.867 13.66l9.2-1.333-0.381-2.64-9.2 1.333 0.381 2.64zM13.072 11.597l4.115-8.337-2.392-1.181-4.115 8.337 2.392 1.181zM14.795 3.26l4.115 8.337 2.392-1.181-4.115-8.336-2.392 1.181zM19.915 12.327l9.2 1.333 0.381-2.64-9.2-1.333-0.381 2.64zM28.376 11.384l-6.667 6.489 1.86 1.912 6.667-6.489-1.86-1.912zM21.324 19.055l1.573 9.164 2.627-0.451-1.571-9.164-2.629 0.451zM24.832 26.815l-8.211-4.328-1.243 2.36 8.211 4.327 1.243-2.36z"></path>
</symbol>
<symbol id="Favorites-Selected" viewBox="0 0 32 32">
<path fill="#ff715b" style="fill: var(--color2, #ff715b)" d="M16 23.667l-8.229 4.327 1.572-9.164-6.667-6.489 9.2-1.333 4.115-8.337 4.115 8.337 9.2 1.333-6.667 6.489 1.572 9.164-8.211-4.327z"></path>
<path fill="#ff715b" style="fill: var(--color2, #ff715b)" d="M16 23.667l0.621-1.18c-0.18-0.097-0.394-0.153-0.621-0.153s-0.441 0.057-0.628 0.157l0.007-0.003 0.62 1.18zM7.771 27.993l-1.315-0.227c-0.012 0.068-0.019 0.147-0.019 0.227 0 0.736 0.597 1.333 1.333 1.333 0.227 0 0.441-0.057 0.628-0.157l-0.007 0.003-0.62-1.18zM9.343 18.829l1.315 0.225c0.012-0.068 0.019-0.146 0.019-0.226 0-0.375-0.154-0.713-0.403-0.955l-0-0-0.931 0.956zM2.676 12.34l-0.191-1.32c-0.65 0.096-1.144 0.65-1.144 1.32 0 0.375 0.155 0.714 0.404 0.956l0 0 0.931-0.956zM11.876 11.007l0.191 1.32c0.444-0.066 0.811-0.342 1.002-0.722l0.004-0.008-1.196-0.591zM15.991 2.669l1.196-0.591c-0.223-0.444-0.674-0.744-1.196-0.744s-0.973 0.3-1.193 0.736l-0.004 0.008 1.196 0.591zM20.105 11.007l-1.196 0.591c0.195 0.388 0.562 0.664 0.998 0.728l0.007 0.001 0.191-1.32zM29.305 12.34l0.931 0.956c0.249-0.243 0.404-0.581 0.404-0.956 0-0.67-0.494-1.224-1.137-1.319l-0.007-0.001-0.191 1.32zM22.639 18.829l-0.929-0.956c-0.25 0.243-0.404 0.581-0.404 0.956 0 0.079 0.007 0.157 0.020 0.233l-0.001-0.008 1.315-0.225zM24.211 27.993l-0.621 1.18c0.18 0.097 0.394 0.154 0.622 0.154 0.736 0 1.333-0.597 1.333-1.333 0-0.080-0.007-0.158-0.020-0.234l0.001 0.008-1.315 0.225zM15.38 22.487l-8.229 4.327 1.24 2.36 8.229-4.327-1.24-2.36zM9.085 28.219l1.572-9.164-2.629-0.451-1.572 9.164 2.629 0.451zM10.272 17.873l-6.667-6.489-1.859 1.912 6.667 6.489 1.861-1.912zM2.867 13.66l9.2-1.333-0.381-2.64-9.2 1.333 0.381 2.64zM13.072 11.597l4.115-8.337-2.392-1.181-4.115 8.337 2.392 1.181zM14.795 3.26l4.115 8.337 2.392-1.181-4.115-8.336-2.392 1.181zM19.915 12.327l9.2 1.333 0.381-2.64-9.2-1.333-0.381 2.64zM28.376 11.384l-6.667 6.489 1.86 1.912 6.667-6.489-1.86-1.912zM21.324 19.055l1.573 9.164 2.627-0.451-1.571-9.164-2.629 0.451zM24.832 26.815l-8.211-4.328-1.243 2.36 8.211 4.327 1.243-2.36z"></path>
</symbol>
<symbol id="File-Invoice" viewBox="0 0 32 32">
<path d="M18.667 4l0.943-0.943c-0.241-0.241-0.575-0.391-0.943-0.391h-0v1.333zM25.333 10.667h1.333c-0-0.368-0.149-0.701-0.391-0.943v0l-0.943 0.943zM6.667 25.333v0zM9.333 4v0zM12 8c-0.736 0-1.333 0.597-1.333 1.333s0.597 1.333 1.333 1.333v0-2.667zM13.333 10.667c0.736 0 1.333-0.597 1.333-1.333s-0.597-1.333-1.333-1.333v0 2.667zM12 16c-0.736 0-1.333 0.597-1.333 1.333s0.597 1.333 1.333 1.333v0-2.667zM20 18.667c0.736 0 1.333-0.597 1.333-1.333s-0.597-1.333-1.333-1.333v0 2.667zM17.333 21.333c-0.736 0-1.333 0.597-1.333 1.333s0.597 1.333 1.333 1.333v0-2.667zM20 24c0.736 0 1.333-0.597 1.333-1.333s-0.597-1.333-1.333-1.333v0 2.667zM17.333 4v5.333h2.667v-5.333h-2.667zM17.333 9.333c0 0.736 0.299 1.403 0.781 1.885v0l1.885-1.885h-2.667zM18.115 11.219c0.482 0.483 1.149 0.781 1.885 0.781h0v-2.667l-1.885 1.885zM20 12h5.333v-2.667h-5.333v2.667zM22.667 26.667h-13.333v2.667h13.333v-2.667zM9.333 26.667c-0.368-0-0.701-0.149-0.943-0.391v0l-1.885 1.885c0.724 0.724 1.724 1.172 2.828 1.172h0v-2.667zM8.391 26.276c-0.241-0.241-0.391-0.575-0.391-0.943v-0h-2.667c0 1.104 0.448 2.104 1.172 2.828v0l1.885-1.885zM8 25.333v-18.667h-2.667v18.667h2.667zM8 6.667c0-0.368 0.149-0.701 0.391-0.943v0l-1.885-1.885c-0.724 0.724-1.172 1.724-1.172 2.828v0h2.667zM8.391 5.724c0.241-0.241 0.575-0.391 0.943-0.391h0v-2.667c-1.104 0-2.104 0.448-2.828 1.172v0l1.885 1.885zM9.333 5.333h9.333v-2.667h-9.333v2.667zM17.724 4.943l6.667 6.667 1.885-1.885-6.667-6.667-1.885 1.885zM24 10.667v14.667h2.667v-14.667h-2.667zM24 25.333c-0 0.368-0.149 0.701-0.391 0.943v0l1.885 1.885c0.724-0.724 1.172-1.724 1.172-2.828v-0h-2.667zM23.609 26.276c-0.241 0.241-0.575 0.391-0.943 0.391h-0v2.667c1.104-0 2.104-0.448 2.828-1.172v0l-1.885-1.885zM12 10.667h1.333v-2.667h-1.333v2.667zM12 18.667h8v-2.667h-8v2.667zM17.333 24h2.667v-2.667h-2.667v2.667z"></path>
</symbol>
<symbol id="Filters" viewBox="0 0 32 32">
<path d="M9.333 9.333c0 1.473-1.194 2.667-2.667 2.667v0 2.667c2.946 0 5.333-2.388 5.333-5.333v0h-2.667zM6.667 12c-1.473 0-2.667-1.194-2.667-2.667v0h-2.667c0 2.946 2.388 5.333 5.333 5.333v0-2.667zM4 9.333c0-1.473 1.194-2.667 2.667-2.667v0-2.667c-2.946 0-5.333 2.388-5.333 5.333v0h2.667zM6.667 6.667c1.473 0 2.667 1.194 2.667 2.667v0h2.667c0-2.946-2.388-5.333-5.333-5.333v0 2.667zM21.333 22.667c0 1.473 1.194 2.667 2.667 2.667v0 2.667c-2.946 0-5.333-2.388-5.333-5.333v0h2.667zM24 25.333c1.473 0 2.667-1.194 2.667-2.667v0h2.667c0 2.946-2.388 5.333-5.333 5.333v0-2.667zM26.667 22.667c0-1.473-1.194-2.667-2.667-2.667v0-2.667c2.946 0 5.333 2.388 5.333 5.333v0h-2.667zM24 20c-1.473 0-2.667 1.194-2.667 2.667v0h-2.667c0-2.946 2.388-5.333 5.333-5.333v0 2.667z"></path>
<path fill="none" stroke="#12141d" style="stroke: var(--color3, #12141d)" stroke-linejoin="miter" stroke-linecap="round" stroke-miterlimit="4" stroke-width="2.6667" d="M16 9.333h12M14.667 22.667h-12"></path>
</symbol>
<symbol id="Info-Circle" viewBox="0 0 32 32">
<path d="M16 9.333c-0.736 0-1.333 0.597-1.333 1.333s0.597 1.333 1.333 1.333v0-2.667zM16.013 12c0.736 0 1.333-0.597 1.333-1.333s-0.597-1.333-1.333-1.333v0 2.667zM14.667 14.667c-0.736 0-1.333 0.597-1.333 1.333s0.597 1.333 1.333 1.333v0-2.667zM16 16h1.333c0-0.736-0.597-1.333-1.333-1.333v0 1.333zM16 21.333h-1.333c0 0.736 0.597 1.333 1.333 1.333v0-1.333zM17.333 22.667c0.736 0 1.333-0.597 1.333-1.333s-0.597-1.333-1.333-1.333v0 2.667zM26.667 16c0 5.891-4.776 10.667-10.667 10.667v0 2.667c7.364 0 13.333-5.969 13.333-13.333h-2.667zM16 26.667c-5.891 0-10.667-4.776-10.667-10.667v0h-2.667c0 7.364 5.969 13.333 13.333 13.333v-2.667zM5.333 16c0-5.891 4.776-10.667 10.667-10.667v0-2.667c-7.364 0-13.333 5.969-13.333 13.333h2.667zM16 5.333c5.891 0 10.667 4.776 10.667 10.667v0h2.667c0-7.364-5.969-13.333-13.333-13.333v2.667zM16 12h0.013v-2.667h-0.013v2.667zM14.667 17.333h1.333v-2.667h-1.333v2.667zM14.667 16v5.333h2.667v-5.333h-2.667zM16 22.667h1.333v-2.667h-1.333v2.667z"></path>
</symbol>
<symbol id="Keyboard-hide" viewBox="0 0 32 32">
<path stroke-linejoin="round" stroke-linecap="round" stroke-miterlimit="4" stroke-width="2.6667" d="M8 17.333v0.013M24 17.333v0.013M13.333 17.333h5.333M13.333 28l2.667 2.667 2.667-2.667M5.333 6.667h21.333c1.473 0 2.667 1.194 2.667 2.667v0 10.667c0 1.473-1.194 2.667-2.667 2.667v0h-21.333c-1.473 0-2.667-1.194-2.667-2.667v0-10.667c0-1.473 1.194-2.667 2.667-2.667v0z"></path>
</symbol>
<symbol id="Logout" viewBox="0 0 32 32">
<path d="M17.333 10.667c0 0.736 0.597 1.333 1.333 1.333s1.333-0.597 1.333-1.333v0h-2.667zM16 5.333v0zM6.667 5.333v0zM4 8v0zM4 24v0zM20 21.333c0-0.736-0.597-1.333-1.333-1.333s-1.333 0.597-1.333 1.333v0h2.667zM9.333 14.667c-0.736 0-1.333 0.597-1.333 1.333s0.597 1.333 1.333 1.333v0-2.667zM28 16l0.943 0.943c0.241-0.241 0.39-0.575 0.39-0.943s-0.149-0.701-0.39-0.943v0l-0.943 0.943zM24.943 11.057c-0.243-0.251-0.583-0.407-0.959-0.407-0.736 0-1.333 0.597-1.333 1.333 0 0.376 0.156 0.716 0.407 0.959l0 0 1.885-1.885zM23.057 19.057c-0.232 0.24-0.374 0.566-0.374 0.926 0 0.736 0.597 1.333 1.333 1.333 0.36 0 0.687-0.143 0.927-0.375l-0 0-1.885-1.885zM20 10.667v-2.667h-2.667v2.667h2.667zM20 8c-0-1.104-0.448-2.104-1.172-2.828v0l-1.885 1.885c0.241 0.241 0.391 0.575 0.391 0.943v0h2.667zM18.828 5.172c-0.724-0.724-1.724-1.172-2.828-1.172h-0v2.667c0.368 0 0.701 0.149 0.943 0.391v0l1.885-1.885zM16 4h-9.333v2.667h9.333v-2.667zM6.667 4c-1.104 0-2.104 0.448-2.828 1.172v0l1.885 1.885c0.241-0.241 0.575-0.391 0.943-0.391h0v-2.667zM3.839 5.172c-0.724 0.724-1.172 1.724-1.172 2.828v0h2.667c0-0.368 0.149-0.701 0.391-0.943v0l-1.885-1.885zM2.667 8v16h2.667v-16h-2.667zM2.667 24c0 1.104 0.448 2.104 1.172 2.828v0l1.885-1.885c-0.241-0.241-0.391-0.575-0.391-0.943v-0h-2.667zM3.839 26.828c0.724 0.724 1.724 1.172 2.828 1.172h0v-2.667c-0.368-0-0.701-0.149-0.943-0.391v0l-1.885 1.885zM6.667 28h9.333v-2.667h-9.333v2.667zM16 28c1.104-0 2.104-0.448 2.828-1.172v0l-1.885-1.885c-0.241 0.241-0.575 0.391-0.943 0.391h-0v2.667zM18.828 26.828c0.724-0.724 1.172-1.724 1.172-2.828v-0h-2.667c-0 0.368-0.149 0.701-0.391 0.943v0l1.885 1.885zM20 24v-2.667h-2.667v2.667h2.667zM9.333 17.333h18.667v-2.667h-18.667v2.667zM28.943 15.057l-4-4-1.885 1.885 4 4 1.885-1.885zM24.943 20.943l4-4-1.885-1.885-4 4 1.885 1.885z"></path>
</symbol>
<symbol id="Map-pin" viewBox="0 0 32 32">
<path d="M23.543 22.209v0zM17.885 27.867v0zM14.116 27.867v0zM8.457 22.209v0zM18.667 14.667c0 1.473-1.194 2.667-2.667 2.667v0 2.667c2.946 0 5.333-2.388 5.333-5.333v0h-2.667zM16 17.333c-1.473 0-2.667-1.194-2.667-2.667v0h-2.667c0 2.946 2.388 5.333 5.333 5.333v0-2.667zM13.333 14.667c0-1.473 1.194-2.667 2.667-2.667v0-2.667c-2.946 0-5.333 2.388-5.333 5.333v0h2.667zM16 12c1.473 0 2.667 1.194 2.667 2.667v0h2.667c0-2.946-2.388-5.333-5.333-5.333v0 2.667zM22.6 21.267l-5.657 5.657 1.885 1.885 5.657-5.657-1.885-1.885zM16.943 26.923c-0.241 0.241-0.575 0.391-0.943 0.391h-0v2.667c1.104-0 2.103-0.448 2.827-1.171l-0 0-1.884-1.887zM16 27.313c-0.368-0-0.7-0.15-0.941-0.391v0l-1.885 1.887c0.724 0.723 1.723 1.17 2.827 1.171h0v-2.667zM15.059 26.924l-5.659-5.657-1.885 1.885 5.659 5.657 1.885-1.885zM9.4 21.267c-1.267-1.267-2.171-2.896-2.544-4.718l-0.010-0.060-2.615 0.52c0.493 2.421 1.655 4.515 3.284 6.144v0l1.885-1.885zM6.845 16.488c-0.114-0.547-0.179-1.176-0.179-1.82 0-1.289 0.261-2.518 0.734-3.635l-0.023 0.061-2.464-1.020c-0.578 1.357-0.913 2.935-0.913 4.592 0 0.829 0.084 1.638 0.244 2.419l-0.013-0.077 2.615-0.52zM7.377 11.095c0.731-1.736 1.914-3.161 3.403-4.167l0.033-0.021-1.48-2.217c-1.958 1.321-3.479 3.153-4.39 5.307l-0.030 0.079 2.464 1.020zM10.813 6.907c1.457-0.986 3.253-1.573 5.186-1.573 0 0 0.001 0 0.001 0h-0v-2.667c-2.485 0-4.794 0.756-6.709 2.050l0.042-0.027 1.48 2.217zM16 5.333c1.933 0 3.729 0.588 5.218 1.594l-0.033-0.021 1.481-2.217c-1.873-1.267-4.181-2.023-6.667-2.023h-0v2.667zM21.185 6.907c1.522 1.027 2.706 2.452 3.414 4.127l0.023 0.061 2.464-1.020c-0.941-2.232-2.462-4.064-4.378-5.358l-0.043-0.027-1.48 2.217zM24.623 11.095c0.707 1.707 0.892 3.583 0.532 5.393l2.615 0.52c0.147-0.704 0.231-1.513 0.231-2.341 0-1.657-0.336-3.235-0.943-4.671l0.030 0.079-2.464 1.020zM25.155 16.488c-0.383 1.883-1.288 3.512-2.555 4.779l-0 0 1.885 1.885c1.629-1.629 2.791-3.723 3.271-6.067l0.013-0.077-2.616-0.52z"></path>
</symbol>
<symbol id="Messages" viewBox="0 0 32 32">
<path d="M28 18.667l-0.943 0.943c0.241 0.241 0.575 0.39 0.943 0.39 0.736 0 1.333-0.597 1.333-1.333v-0h-1.333zM24 14.667l0.943-0.943c-0.241-0.241-0.575-0.391-0.943-0.391h-0v1.333zM14.667 4v0zM26.667 4v0zM20 20c0-0.736-0.597-1.333-1.333-1.333s-1.333 0.597-1.333 1.333v0h2.667zM8 24v-1.333c-0.368 0-0.701 0.149-0.943 0.391v0l0.943 0.943zM4 28h-1.333c0 0.736 0.597 1.333 1.333 1.333 0.368 0 0.701-0.149 0.943-0.39v0l-0.943-0.943zM8 14.667c0.736 0 1.333-0.597 1.333-1.333s-0.597-1.333-1.333-1.333v0 2.667zM28.943 17.724l-4-4-1.885 1.885 4 4 1.885-1.885zM24 13.333h-9.333v2.667h9.333v-2.667zM14.667 13.333l-1.885 1.885c0.482 0.483 1.149 0.781 1.885 0.781h0v-2.667zM14.667 13.333h-2.667c0 0.736 0.299 1.403 0.781 1.885v0l1.885-1.885zM14.667 13.333v-8h-2.667v8h2.667zM14.667 5.333l-1.885-1.885c-0.483 0.482-0.781 1.149-0.781 1.885v0h2.667zM14.667 5.333v-2.667c-0.736 0-1.403 0.299-1.885 0.781v0l1.885 1.885zM14.667 5.333h12v-2.667h-12v2.667zM26.667 5.333l1.885-1.885c-0.482-0.483-1.149-0.781-1.885-0.781h-0v2.667zM26.667 5.333h2.667c-0-0.736-0.299-1.403-0.781-1.885v0l-1.885 1.885zM26.667 5.333v13.333h2.667v-13.333h-2.667zM17.333 20v2.667h2.667v-2.667h-2.667zM17.333 22.667l1.885 1.885c0.483-0.482 0.781-1.149 0.781-1.885v-0h-2.667zM17.333 22.667v2.667c0.736-0 1.403-0.299 1.885-0.781v0l-1.885-1.885zM17.333 22.667h-9.333v2.667h9.333v-2.667zM7.057 23.057l-4 4 1.885 1.885 4-4-1.885-1.885zM5.333 28v-13.333h-2.667v13.333h2.667zM5.333 14.667l-1.885-1.885c-0.483 0.482-0.781 1.149-0.781 1.885v0h2.667zM5.333 14.667v-2.667c-0.736 0-1.403 0.299-1.885 0.781v0l1.885 1.885zM5.333 14.667h2.667v-2.667h-2.667v2.667z"></path>
</symbol>
<symbol id="Music" viewBox="0 0 32 32">
<path d="M12 5.333v-1.333c-0.736 0-1.333 0.597-1.333 1.333v0h1.333zM25.333 5.333h1.333c0-0.736-0.597-1.333-1.333-1.333v0 1.333zM12 9.333c-0.736 0-1.333 0.597-1.333 1.333s0.597 1.333 1.333 1.333v0-2.667zM25.333 12c0.736 0 1.333-0.597 1.333-1.333s-0.597-1.333-1.333-1.333v0 2.667zM10.667 22.667c0 1.473-1.194 2.667-2.667 2.667v0 2.667c2.946 0 5.333-2.388 5.333-5.333v0h-2.667zM8 25.333c-1.473 0-2.667-1.194-2.667-2.667v0h-2.667c0 2.946 2.388 5.333 5.333 5.333v0-2.667zM5.333 22.667c0-1.473 1.194-2.667 2.667-2.667v0-2.667c-2.946 0-5.333 2.388-5.333 5.333v0h2.667zM8 20c1.473 0 2.667 1.194 2.667 2.667v0h2.667c0-2.946-2.388-5.333-5.333-5.333v0 2.667zM24 22.667c0 1.473-1.194 2.667-2.667 2.667v0 2.667c2.946 0 5.333-2.388 5.333-5.333v0h-2.667zM21.333 25.333c-1.473 0-2.667-1.194-2.667-2.667v0h-2.667c0 2.946 2.388 5.333 5.333 5.333v0-2.667zM18.667 22.667c0-1.473 1.194-2.667 2.667-2.667v0-2.667c-2.946 0-5.333 2.388-5.333 5.333v0h2.667zM21.333 20c1.473 0 2.667 1.194 2.667 2.667v0h2.667c0-2.946-2.388-5.333-5.333-5.333v0 2.667zM13.333 22.667v-17.333h-2.667v17.333h2.667zM12 6.667h13.333v-2.667h-13.333v2.667zM24 5.333v17.333h2.667v-17.333h-2.667zM12 12h13.333v-2.667h-13.333v2.667z"></path>
</symbol>
<symbol id="Pencil" viewBox="0 0 32 32">
<path stroke-linejoin="round" stroke-linecap="round" stroke-miterlimit="4" stroke-width="2.6667" d="M18 8.667l5.333 5.333M5.333 26.667h5.333l14-14c0.651-0.677 1.052-1.598 1.052-2.613 0-2.083-1.689-3.772-3.772-3.772-1.015 0-1.936 0.401-2.614 1.053l0.001-0.001-14 14v5.333z"></path>
</symbol>
<symbol id="Player-Play" viewBox="0 0 32 32">
<path d="M9.333 5.333l0.699-1.136c-0.199-0.124-0.44-0.198-0.699-0.198-0.736 0-1.333 0.597-1.333 1.333 0 0 0 0 0 0v-0h1.333zM9.333 26.667h-1.333c0 0 0 0 0 0 0 0.736 0.597 1.333 1.333 1.333 0.259 0 0.5-0.074 0.704-0.201l-0.006 0.003-0.699-1.136zM26.667 16l0.699 1.136c0.384-0.239 0.635-0.658 0.635-1.136s-0.252-0.897-0.63-1.133l-0.006-0.003-0.699 1.136zM8 5.333v21.333h2.667v-21.333h-2.667zM10.032 27.803l17.333-10.667-1.397-2.272-17.333 10.667 1.397 2.272zM27.365 14.864l-17.333-10.667-1.397 2.272 17.333 10.667 1.397-2.272z"></path>
</symbol>
<symbol id="Plus" viewBox="0 0 32 32">
<path d="M17.333 6.667c0-0.736-0.597-1.333-1.333-1.333s-1.333 0.597-1.333 1.333v0h2.667zM14.667 25.333c0 0.736 0.597 1.333 1.333 1.333s1.333-0.597 1.333-1.333v0h-2.667zM6.667 14.667c-0.736 0-1.333 0.597-1.333 1.333s0.597 1.333 1.333 1.333v0-2.667zM25.333 17.333c0.736 0 1.333-0.597 1.333-1.333s-0.597-1.333-1.333-1.333v0 2.667zM14.667 6.667v18.667h2.667v-18.667h-2.667zM6.667 17.333h18.667v-2.667h-18.667v2.667z"></path>
</symbol>
<symbol id="Search" viewBox="0 0 32 32">
<path d="M27.057 28.943c0.24 0.232 0.566 0.374 0.926 0.374 0.736 0 1.333-0.597 1.333-1.333 0-0.36-0.143-0.687-0.375-0.927l0 0-1.885 1.885zM20.943 19.057c-0.24-0.232-0.566-0.374-0.926-0.374-0.736 0-1.333 0.597-1.333 1.333 0 0.36 0.143 0.687 0.375 0.927l-0-0 1.885-1.885zM21.333 13.333c0 4.418-3.582 8-8 8v0 2.667c5.891 0 10.667-4.776 10.667-10.667v0h-2.667zM13.333 21.333c-4.418 0-8-3.582-8-8v0h-2.667c0 5.891 4.776 10.667 10.667 10.667v0-2.667zM5.333 13.333c0-4.418 3.582-8 8-8v0-2.667c-5.891 0-10.667 4.776-10.667 10.667v0h2.667zM13.333 5.333c4.418 0 8 3.582 8 8v0h2.667c0-5.891-4.776-10.667-10.667-10.667v0 2.667zM28.943 27.057l-8-8-1.885 1.885 8 8 1.885-1.885z"></path>
</symbol>
<symbol id="Send" viewBox="0 0 32 32">
<path d="M28 4l1.253 0.453c0.050-0.135 0.079-0.29 0.079-0.452 0-0.736-0.597-1.333-1.333-1.333-0.162 0-0.318 0.029-0.462 0.082l0.009-0.003 0.453 1.253zM19.333 28l1.213 0.556c0.011-0.025 0.025-0.059 0.037-0.093l0.003-0.009-1.253-0.453zM18.667 28.427v0zM18 28l1.213-0.556c-0.010-0.020-0.017-0.033-0.024-0.046l0.003 0.006-1.192 0.596zM4 14l0.596-1.192c-0.006-0.003-0.019-0.010-0.032-0.017l-0.008-0.003-0.556 1.212zM3.573 13.333v0zM4 12.667l-0.453-1.253c-0.044 0.015-0.078 0.029-0.111 0.043l0.008-0.003 0.556 1.213zM14.276 19.609l14.667-14.667-1.885-1.885-14.667 14.667 1.885 1.885zM26.747 3.547l-8.667 24 2.509 0.907 8.667-24-2.509-0.907zM18.123 27.444c0.050-0.105 0.125-0.191 0.219-0.252l0.002-0.001 1.44 2.243c0.333-0.213 0.599-0.519 0.763-0.877l-2.424-1.112zM18.344 27.191c0.091-0.060 0.203-0.096 0.322-0.097h0v2.667c0.396 0 0.783-0.113 1.116-0.328l-1.44-2.244zM18.667 27.093c0 0 0 0 0.001 0 0.12 0 0.232 0.035 0.326 0.096l-0.002-0.001-1.44 2.244c0.333 0.213 0.72 0.328 1.116 0.328v-2.667zM18.991 27.188c0.096 0.062 0.172 0.149 0.22 0.251l0.002 0.004-2.424 1.112c0.165 0.36 0.429 0.664 0.763 0.877l1.44-2.244zM19.192 27.401l-4.667-9.333-2.384 1.193 4.667 9.333 2.384-1.192zM13.929 17.473l-9.333-4.667-1.192 2.384 9.333 4.667 1.192-2.384zM4.556 12.787c0.105 0.050 0.191 0.125 0.252 0.219l0.001 0.002-2.243 1.44c0.213 0.333 0.519 0.597 0.877 0.763l1.112-2.424zM4.809 13.008c0.061 0.092 0.097 0.204 0.097 0.325v0h-2.667c0 0.396 0.113 0.783 0.328 1.116l2.244-1.44zM4.907 13.333c0 0 0 0 0 0.001 0 0.12-0.035 0.232-0.096 0.326l0.001-0.002-2.244-1.44c-0.213 0.333-0.328 0.72-0.328 1.116h2.667zM4.812 13.657c-0.062 0.096-0.149 0.172-0.251 0.22l-0.004 0.002-1.112-2.424c-0.365 0.17-0.663 0.431-0.872 0.755l-0.005 0.008 2.244 1.44zM4.455 13.921l24-8.667-0.907-2.509-24 8.667 0.907 2.509z"></path>
</symbol>
<symbol id="Trash" viewBox="0 0 32 32">
<path d="M5.333 8c-0.736 0-1.333 0.597-1.333 1.333s0.597 1.333 1.333 1.333v0-2.667zM26.667 10.667c0.736 0 1.333-0.597 1.333-1.333s-0.597-1.333-1.333-1.333v0 2.667zM14.667 14.667c0-0.736-0.597-1.333-1.333-1.333s-1.333 0.597-1.333 1.333v0h2.667zM12 22.667c0 0.736 0.597 1.333 1.333 1.333s1.333-0.597 1.333-1.333v0h-2.667zM20 14.667c0-0.736-0.597-1.333-1.333-1.333s-1.333 0.597-1.333 1.333v0h2.667zM17.333 22.667c0 0.736 0.597 1.333 1.333 1.333s1.333-0.597 1.333-1.333v0h-2.667zM7.996 9.223c-0.059-0.688-0.632-1.223-1.329-1.223-0.737 0-1.334 0.597-1.334 1.334 0 0.039 0.002 0.078 0.005 0.116l-0-0.005 2.659-0.221zM8 25.333h1.333c0-0.002 0-0.005 0-0.007 0-0.036-0.001-0.072-0.004-0.108l0 0.005-1.329 0.111zM24 25.333l-1.329-0.111c-0.003 0.031-0.004 0.067-0.004 0.103 0 0.003 0 0.005 0 0.008v-0h1.333zM26.663 9.444c0.003-0.033 0.005-0.072 0.005-0.111 0-0.737-0.597-1.334-1.334-1.334-0.698 0-1.27 0.536-1.329 1.218l-0 0.005 2.659 0.221zM10.667 9.333c0 0.736 0.597 1.333 1.333 1.333s1.333-0.597 1.333-1.333v0h-2.667zM13.333 4v0zM18.667 4v0zM18.667 9.333c0 0.736 0.597 1.333 1.333 1.333s1.333-0.597 1.333-1.333v0h-2.667zM5.333 10.667h21.333v-2.667h-21.333v2.667zM12 14.667v8h2.667v-8h-2.667zM17.333 14.667v8h2.667v-8h-2.667zM5.337 9.444l1.333 16 2.659-0.221-1.333-16-2.659 0.221zM6.667 25.333c0 1.104 0.448 2.104 1.172 2.828v0l1.885-1.885c-0.241-0.241-0.391-0.575-0.391-0.943v-0h-2.667zM7.839 28.161c0.724 0.724 1.724 1.172 2.828 1.172h0v-2.667c-0.368-0-0.701-0.149-0.943-0.391v0l-1.885 1.885zM10.667 29.333h10.667v-2.667h-10.667v2.667zM21.333 29.333c1.104-0 2.104-0.448 2.828-1.172v0l-1.885-1.885c-0.241 0.241-0.575 0.391-0.943 0.391h-0v2.667zM24.161 28.161c0.724-0.724 1.172-1.724 1.172-2.828v-0h-2.667c-0 0.368-0.149 0.701-0.391 0.943v0l1.885 1.885zM25.329 25.444l1.333-16-2.659-0.221-1.333 16 2.659 0.221zM13.333 9.333v-4h-2.667v4h2.667zM13.333 5.333l-1.885-1.885c-0.483 0.482-0.781 1.149-0.781 1.885v0h2.667zM13.333 5.333v-2.667c-0.736 0-1.403 0.299-1.885 0.781v0l1.885 1.885zM13.333 5.333h5.333v-2.667h-5.333v2.667zM18.667 5.333l1.885-1.885c-0.482-0.483-1.149-0.781-1.885-0.781h-0v2.667zM18.667 5.333h2.667c-0-0.736-0.299-1.403-0.781-1.885v0l-1.885 1.885zM18.667 5.333v4h2.667v-4h-2.667z"></path>
</symbol>
<symbol id="Upload" viewBox="0 0 32 32">
<path d="M6.667 22.667c0-0.736-0.597-1.333-1.333-1.333s-1.333 0.597-1.333 1.333v0h2.667zM5.333 25.333v0zM28 22.667c0-0.736-0.597-1.333-1.333-1.333s-1.333 0.597-1.333 1.333v0h2.667zM8.391 11.057c-0.232 0.24-0.374 0.566-0.374 0.926 0 0.736 0.597 1.333 1.333 1.333 0.36 0 0.687-0.143 0.927-0.375l-0 0-1.885-1.885zM16 5.333l0.943-0.943c-0.241-0.241-0.575-0.39-0.943-0.39s-0.701 0.149-0.943 0.39v0l0.943 0.943zM21.724 12.943c0.24 0.232 0.566 0.374 0.926 0.374 0.736 0 1.333-0.597 1.333-1.333 0-0.36-0.143-0.687-0.375-0.927l0 0-1.885 1.885zM14.667 21.333c0 0.736 0.597 1.333 1.333 1.333s1.333-0.597 1.333-1.333v0h-2.667zM4 22.667v2.667h2.667v-2.667h-2.667zM4 25.333c0 1.104 0.448 2.104 1.172 2.828v0l1.885-1.885c-0.241-0.241-0.391-0.575-0.391-0.943v-0h-2.667zM5.172 28.161c0.724 0.724 1.724 1.172 2.828 1.172h0v-2.667c-0.368-0-0.701-0.149-0.943-0.391v0l-1.885 1.885zM8 29.333h16v-2.667h-16v2.667zM24 29.333c1.104-0 2.104-0.448 2.828-1.172v0l-1.885-1.885c-0.241 0.241-0.575 0.391-0.943 0.391h-0v2.667zM26.828 28.161c0.724-0.724 1.172-1.724 1.172-2.828v-0h-2.667c-0 0.368-0.149 0.701-0.391 0.943v0l1.885 1.885zM28 25.333v-2.667h-2.667v2.667h2.667zM10.276 12.943l6.667-6.667-1.885-1.885-6.667 6.667 1.885 1.885zM15.057 6.276l6.667 6.667 1.885-1.885-6.667-6.667-1.885 1.885zM14.667 5.333v16h2.667v-16h-2.667z"></path>
</symbol>
<symbol id="User" viewBox="0 0 32 32">
<path d="M6.667 28c0 0.736 0.597 1.333 1.333 1.333s1.333-0.597 1.333-1.333v0h-2.667zM13.333 20v0zM18.667 20v0zM22.667 28c0 0.736 0.597 1.333 1.333 1.333s1.333-0.597 1.333-1.333v0h-2.667zM20 9.333c0 2.209-1.791 4-4 4v0 2.667c3.682 0 6.667-2.985 6.667-6.667v0h-2.667zM16 13.333c-2.209 0-4-1.791-4-4v0h-2.667c0 3.682 2.985 6.667 6.667 6.667v0-2.667zM12 9.333c0-2.209 1.791-4 4-4v0-2.667c-3.682 0-6.667 2.985-6.667 6.667v0h2.667zM16 5.333c2.209 0 4 1.791 4 4v0h2.667c0-3.682-2.985-6.667-6.667-6.667v0 2.667zM9.333 28v-2.667h-2.667v2.667h2.667zM9.333 25.333c0-1.104 0.448-2.104 1.172-2.828v0l-1.887-1.887c-1.206 1.206-1.952 2.873-1.952 4.713 0 0 0 0.001 0 0.001v-0h2.667zM10.505 22.505c0.724-0.724 1.724-1.172 2.828-1.172h0v-2.667c-0 0-0.001 0-0.001 0-1.841 0-3.507 0.746-4.713 1.952v0l1.888 1.888zM13.333 21.333h5.333v-2.667h-5.333v2.667zM18.667 21.333c1.104 0 2.104 0.448 2.828 1.172v0l1.887-1.887c-1.206-1.206-2.873-1.952-4.713-1.952-0 0-0.001 0-0.001 0h0v2.667zM21.495 22.505c0.724 0.724 1.172 1.724 1.172 2.828v0h2.667c-0-1.841-0.747-3.508-1.953-4.715v0l-1.885 1.887zM22.667 25.333v2.667h2.667v-2.667h-2.667z"></path>
</symbol>
<symbol id="Zoom-In" viewBox="0 0 32 32">
<path d="M9.333 12c-0.736 0-1.333 0.597-1.333 1.333s0.597 1.333 1.333 1.333v0-2.667zM17.333 14.667c0.736 0 1.333-0.597 1.333-1.333s-0.597-1.333-1.333-1.333v0 2.667zM14.667 9.333c0-0.736-0.597-1.333-1.333-1.333s-1.333 0.597-1.333 1.333v0h2.667zM12 17.333c0 0.736 0.597 1.333 1.333 1.333s1.333-0.597 1.333-1.333v0h-2.667zM27.057 28.943c0.24 0.232 0.566 0.374 0.926 0.374 0.736 0 1.333-0.597 1.333-1.333 0-0.36-0.143-0.687-0.375-0.927l0 0-1.885 1.885zM20.943 19.057c-0.24-0.232-0.566-0.374-0.926-0.374-0.736 0-1.333 0.597-1.333 1.333 0 0.36 0.143 0.687 0.375 0.927l-0-0 1.885-1.885zM21.333 13.333c0 4.418-3.582 8-8 8v0 2.667c5.891 0 10.667-4.776 10.667-10.667v0h-2.667zM13.333 21.333c-4.418 0-8-3.582-8-8v0h-2.667c0 5.891 4.776 10.667 10.667 10.667v0-2.667zM5.333 13.333c0-4.418 3.582-8 8-8v0-2.667c-5.891 0-10.667 4.776-10.667 10.667v0h2.667zM13.333 5.333c4.418 0 8 3.582 8 8v0h2.667c0-5.891-4.776-10.667-10.667-10.667v0 2.667zM9.333 14.667h8v-2.667h-8v2.667zM12 9.333v8h2.667v-8h-2.667zM28.943 27.057l-8-8-1.885 1.885 8 8 1.885-1.885z"></path>
</symbol>
<symbol id="Zoom-Out" viewBox="0 0 32 32">
<path d="M9.333 12c-0.736 0-1.333 0.597-1.333 1.333s0.597 1.333 1.333 1.333v0-2.667zM17.333 14.667c0.736 0 1.333-0.597 1.333-1.333s-0.597-1.333-1.333-1.333v0 2.667zM27.057 28.943c0.24 0.232 0.566 0.374 0.926 0.374 0.736 0 1.333-0.597 1.333-1.333 0-0.36-0.143-0.687-0.375-0.927l0 0-1.885 1.885zM20.943 19.057c-0.24-0.232-0.566-0.374-0.926-0.374-0.736 0-1.333 0.597-1.333 1.333 0 0.36 0.143 0.687 0.375 0.927l-0-0 1.885-1.885zM21.333 13.333c0 4.418-3.582 8-8 8v0 2.667c5.891 0 10.667-4.776 10.667-10.667v0h-2.667zM13.333 21.333c-4.418 0-8-3.582-8-8v0h-2.667c0 5.891 4.776 10.667 10.667 10.667v0-2.667zM5.333 13.333c0-4.418 3.582-8 8-8v0-2.667c-5.891 0-10.667 4.776-10.667 10.667v0h2.667zM13.333 5.333c4.418 0 8 3.582 8 8v0h2.667c0-5.891-4.776-10.667-10.667-10.667v0 2.667zM9.333 14.667h8v-2.667h-8v2.667zM28.943 27.057l-8-8-1.885 1.885 8 8 1.885-1.885z"></path>
</symbol>
<symbol id="Edit1" viewBox="0 0 32 32">
<path d="M12 10c0.368 0 0.667-0.298 0.667-0.667s-0.298-0.667-0.667-0.667v0 1.333zM8 9.333v0zM5.333 12v0zM5.333 24v0zM23.333 20c0-0.368-0.298-0.667-0.667-0.667s-0.667 0.298-0.667 0.667v0h1.333zM12 20h-0.667c0 0.368 0.298 0.667 0.667 0.667v0-0.667zM16 20v0.667c0.184-0 0.351-0.075 0.471-0.195v0l-0.471-0.471zM27.333 8.667v0zM28.162 6.667v0zM25.333 3.838v0zM23.333 4.667v0zM12 16l-0.471-0.471c-0.121 0.121-0.195 0.287-0.195 0.471v0h0.667zM21.805 6.195c-0.121-0.126-0.291-0.204-0.48-0.204-0.368 0-0.667 0.298-0.667 0.667 0 0.188 0.078 0.358 0.203 0.479l0 0 0.943-0.943zM24.862 11.138c0.12 0.116 0.283 0.187 0.463 0.187 0.368 0 0.667-0.298 0.667-0.667 0-0.18-0.071-0.343-0.187-0.463l0 0-0.943 0.943zM12 8.667h-4v1.333h4v-1.333zM8 8.667c-0 0-0 0-0.001 0-0.92 0-1.754 0.373-2.357 0.976v0l0.944 0.944c0.362-0.362 0.861-0.586 1.413-0.587h0v-1.333zM5.643 9.643c-0.603 0.603-0.976 1.436-0.976 2.357 0 0 0 0 0 0.001v-0h1.333c0-0.552 0.224-1.052 0.586-1.414v0l-0.943-0.943zM4.667 12v12h1.333v-12h-1.333zM4.667 24c0 0.92 0.373 1.753 0.976 2.357v0l0.943-0.943c-0.362-0.362-0.586-0.862-0.586-1.414v-0h-1.333zM5.643 26.357c0.603 0.603 1.437 0.977 2.357 0.977v0-1.333c-0.552-0-1.052-0.224-1.414-0.586v0l-0.943 0.943zM8 27.333h12v-1.333h-12v1.333zM20 27.333c0.92-0 1.754-0.373 2.357-0.977v0l-0.943-0.943c-0.362 0.362-0.862 0.586-1.414 0.586h-0v1.333zM22.357 26.357c0.603-0.603 0.976-1.436 0.977-2.357v-0h-1.333c-0 0.552-0.224 1.052-0.586 1.414v0l0.943 0.943zM23.333 24v-4h-1.333v4h1.333zM12 20.667h4v-1.333h-4v1.333zM16.471 20.471l11.333-11.333-0.943-0.943-11.333 11.333 0.943 0.943zM27.805 9.138c0.633-0.632 1.024-1.506 1.024-2.471v-0h-1.333c0 0.573-0.228 1.123-0.633 1.529l0.943 0.943zM28.829 6.667c0-0.927-0.369-1.816-1.024-2.471l-0.943 0.943c0.405 0.405 0.633 0.955 0.633 1.529h1.333zM27.805 4.195c-0.632-0.633-1.506-1.024-2.471-1.024h-0v1.333c0.573 0 1.123 0.228 1.529 0.633l0.943-0.943zM25.333 3.171c-0.927 0-1.816 0.369-2.471 1.024l0.943 0.943c0.391-0.391 0.932-0.633 1.529-0.633v0-1.333zM22.862 4.195l-11.333 11.333 0.943 0.943 11.333-11.333-0.943-0.943zM11.333 16v4h1.333v-4h-1.333zM20.862 7.138l4 4 0.943-0.943-4-4-0.943 0.943z"></path>
</symbol>
<symbol id="Messages1" viewBox="0 0 32 32">
<path d="M27.333 18.519l-0.471 0.471c0.121 0.121 0.287 0.195 0.471 0.195 0.368 0 0.667-0.298 0.667-0.667v0h-0.667zM23.555 14.741l0.471-0.471c-0.121-0.121-0.287-0.195-0.471-0.195v0 0.667zM14.741 4.667v0zM26.074 4.667v0zM19.185 17.926c0-0.368-0.298-0.667-0.667-0.667s-0.667 0.298-0.667 0.667v0h1.333zM8.445 23.555v-0.667c-0.184 0-0.351 0.075-0.471 0.195v0l0.471 0.471zM4.667 27.333h-0.667c0 0.368 0.299 0.667 0.667 0.667 0.184 0 0.351-0.075 0.471-0.195v0l-0.471-0.471zM10.296 14.148c0.368 0 0.667-0.298 0.667-0.667s-0.298-0.667-0.667-0.667v0 1.333zM27.805 18.047l-3.778-3.778-0.943 0.943 3.778 3.778 0.943-0.943zM23.555 14.074h-8.815v1.333h8.815v-1.333zM14.741 14.074c-0.163-0-0.311-0.066-0.419-0.173v0l-0.943 0.943c0.349 0.348 0.83 0.564 1.362 0.564 0 0 0 0 0 0v0-1.333zM14.322 13.901c-0.107-0.107-0.173-0.255-0.173-0.419 0-0 0-0 0-0.001v0h-1.333c0 0.511 0.203 1.001 0.563 1.362l0.943-0.943zM14.149 13.481v-7.555h-1.333v7.555h1.333zM14.149 5.926c0-0.157 0.062-0.308 0.173-0.419l-0.943-0.943c-0.348 0.349-0.564 0.83-0.564 1.362 0 0 0 0 0 0v0h1.333zM14.322 5.507c0.107-0.107 0.255-0.173 0.418-0.173h0v-1.333c-0.511 0-1 0.203-1.362 0.564l0.943 0.943zM14.74 5.333h11.333v-1.333h-11.333v1.333zM26.073 5.333c0.157 0 0.308 0.063 0.419 0.173l0.943-0.943c-0.349-0.348-0.83-0.564-1.362-0.564-0 0-0 0-0 0v0 1.333zM26.493 5.507c0.107 0.107 0.173 0.255 0.173 0.419 0 0 0 0 0 0v0h1.333c0-0.532-0.216-1.013-0.564-1.362v0l-0.942 0.943zM26.666 5.926v12.593h1.333v-12.593h-1.333zM17.851 17.926v4.37h1.333v-4.369h-1.333zM17.851 22.296c0 0 0 0 0 0 0 0.164-0.066 0.312-0.173 0.419v0l0.943 0.943c0.348-0.349 0.564-0.83 0.564-1.362 0-0 0-0 0-0v0h-1.333zM17.678 22.715c-0.107 0.107-0.255 0.173-0.419 0.173-0 0-0.001 0-0.001 0h0v1.333c0.511 0 1.001-0.203 1.363-0.564l-0.943-0.943zM17.258 22.889h-8.813v1.333h8.815v-1.333zM7.973 23.084l-3.778 3.778 0.943 0.943 3.778-3.778-0.943-0.943zM5.333 27.333v-12.593h-1.333v12.593h1.333zM5.333 14.741c0-0.157 0.063-0.308 0.173-0.419l-0.943-0.943c-0.348 0.349-0.564 0.83-0.564 1.362 0 0 0 0 0 0v0h1.333zM5.507 14.322c0.107-0.107 0.255-0.173 0.419-0.173 0 0 0 0 0.001 0h-0v-1.333c-0.511 0-1.001 0.203-1.362 0.563l0.943 0.943zM5.926 14.149h4.37v-1.333h-4.369v1.333z"></path>
</symbol>
<symbol id="Star" viewBox="0 0 32 32">
<path d="M16 23.667l0.311-0.59c-0.090-0.048-0.197-0.077-0.31-0.077s-0.22 0.028-0.314 0.078l0.004-0.002 0.31 0.59zM7.771 27.993l-0.657-0.113c-0.006 0.034-0.010 0.073-0.010 0.113 0 0.368 0.298 0.667 0.667 0.667 0.114 0 0.22-0.028 0.314-0.078l-0.004 0.002-0.31-0.59zM9.343 18.829l0.657 0.113c0.006-0.034 0.010-0.073 0.010-0.112 0-0.188-0.077-0.357-0.202-0.478l-0-0-0.465 0.478zM2.676 12.34l-0.096-0.66c-0.325 0.048-0.571 0.325-0.571 0.66 0 0.187 0.077 0.357 0.202 0.478l0 0 0.465-0.478zM11.876 11.007l0.095 0.66c0.222-0.033 0.405-0.171 0.501-0.361l0.002-0.004-0.598-0.295zM15.991 2.669l0.598-0.295c-0.111-0.222-0.337-0.372-0.598-0.372s-0.487 0.15-0.596 0.368l-0.002 0.004 0.598 0.295zM20.105 11.007l-0.598 0.295c0.097 0.194 0.281 0.332 0.499 0.365l0.004 0 0.095-0.66zM29.305 12.34l0.465 0.477c0.124-0.121 0.202-0.29 0.202-0.478 0-0.334-0.246-0.611-0.567-0.659l-0.004-0-0.095 0.66zM22.639 18.829l-0.465-0.478c-0.124 0.121-0.202 0.29-0.202 0.478 0 0.040 0.003 0.079 0.010 0.117l-0.001-0.004 0.657-0.113zM24.211 27.993l-0.311 0.59c0.090 0.048 0.196 0.076 0.31 0.076 0.368 0 0.667-0.298 0.667-0.667 0-0.040-0.003-0.079-0.010-0.117l0.001 0.004-0.657 0.113zM15.69 23.077l-8.229 4.327 0.62 1.18 8.229-4.327-0.62-1.18zM8.428 28.106l1.571-9.164-1.313-0.225-1.573 9.163 1.315 0.225zM9.808 18.351l-6.667-6.489-0.931 0.956 6.667 6.489 0.93-0.955zM2.771 13l9.2-1.333-0.191-1.32-9.2 1.333 0.191 1.32zM12.473 11.302l4.115-8.338-1.196-0.59-4.115 8.337 1.196 0.591zM15.392 2.964l4.115 8.338 1.196-0.591-4.115-8.337-1.196 0.59zM20.010 11.667l9.2 1.333 0.191-1.32-9.2-1.333-0.191 1.32zM28.84 11.862l-6.667 6.489 0.93 0.955 6.667-6.489-0.93-0.956zM21.981 18.942l1.572 9.164 1.314-0.225-1.572-9.164-1.313 0.225zM24.521 27.403l-8.211-4.327-0.621 1.18 8.211 4.327 0.621-1.18z"></path>
</symbol>
</defs>
</svg>
